<?xml version="1.0" standalone="no"?>
<!DOCTYPE svg PUBLIC "-//W3C//DTD SVG 20010904//EN"
 "http://www.w3.org/TR/2001/REC-SVG-20010904/DTD/svg10.dtd">
<svg version="1.0" xmlns="http://www.w3.org/2000/svg"
 width="800.000000pt" height="600.000000pt" viewBox="0 0 800.000000 600.000000"
 preserveAspectRatio="xMidYMid meet">

<g transform="translate(0.000000,600.000000) scale(0.100000,-0.100000)"
fill="#000000" stroke="none">
<path d="M0 3754 c0 -1793 3 -2245 13 -2241 6 2 1693 1013 3747 2246 l3735
2241 -3747 0 -3748 0 0 -2246z m1595 1461 l128 -415 418 -2 417 -3 -339 -259
c-186 -142 -337 -261 -335 -265 8 -14 257 -824 254 -827 -2 -1 -153 112 -336
252 -183 139 -337 254 -342 254 -5 0 -159 -115 -342 -254 -183 -140 -334 -253
-336 -252 -3 3 246 813 254 827 2 4 -149 123 -335 265 l-339 259 417 3 418 2
128 415 c71 228 132 415 135 415 3 0 64 -187 135 -415z"/>
<path d="M3998 3599 l-3998 -2400 0 -599 0 -599 4000 2400 4000 2400 0 600 c0
329 -1 599 -2 598 -2 0 -1802 -1081 -4000 -2400z"/>
<path d="M4245 2245 l-3740 -2245 3748 0 3747 0 0 2245 c0 1235 -3 2245 -7
2245 -5 -1 -1691 -1011 -3748 -2245z"/>
</g>
</svg>
